<!DOCTYPE svg PUBLIC "-//W3C//DTD SVG 1.1//EN" "http://www.w3.org/Graphics/SVG/1.1/DTD/svg11.dtd">
<!-- Uploaded to: SVG Repo, www.svgrepo.com, Transformed by: SVG Repo Mixer Tools -->
<svg width="800px" height="800px" viewBox="0 0 64 64" xmlns="http://www.w3.org/2000/svg" fill="none" stroke="#a4dbd0" stroke-width="3.3280000000000003">
<g id="SVGRepo_bgCarrier" stroke-width="0"/>
<g id="SVGRepo_tracerCarrier" stroke-linecap="round" stroke-linejoin="round" stroke="#CCCCCC" stroke-width="0.768"/>
<g id="SVGRepo_iconCarrier">
<path d="M8 25a4 4 0 0 0 4 4h8a4 4 0 0 0 4-4c0-4 4-4 8-4s8 0 8 4a4 4 0 0 0 4 4h8a4 4 0 0 0 4-4c0-10-4-14-24-14S8 15 8 25z"/>
<circle cx="32" cy="37" r="8"/>
<path d="m16 29-3.91 11.73A9.32 9.32 0 0 0 20.94 53h22.12a9.32 9.32 0 0 0 8.85-12.27L48 29"/>
</g>
</svg>