<!DOCTYPE svg PUBLIC "-//W3C//DTD SVG 1.1//EN" "http://www.w3.org/Graphics/SVG/1.1/DTD/svg11.dtd">
<!-- Uploaded to: SVG Repo, www.svgrepo.com, Transformed by: SVG Repo Mixer Tools -->
<svg width="800px" height="800px" viewBox="0 0 512 512" xmlns="http://www.w3.org/2000/svg" fill="#a4dbd0">
<g id="SVGRepo_bgCarrier" stroke-width="0"/>
<g id="SVGRepo_tracerCarrier" stroke-linecap="round" stroke-linejoin="round"/>
<g id="SVGRepo_iconCarrier">
<path fill="#a4dbd0" d="M160 32c-16 0-32 16-32 32v384c0 16 16 32 32 32h192c16 0 32-16 32-32V64c0-16-16-32-32-32H160zm21.68 23h96v18h-96V55zM304 55h32v18h-32V55zM154 96h204v320H154V96zm70 342h63.984c16 0 16 16 16 16v6H208v-6s0-16 16-16z"/>
</g>
</svg>